<?xml version="1.0" encoding="utf-8"?>
<!-- Generator: Adobe Illustrator 23.0.1, SVG Export Plug-In . SVG Version: 6.00 Build 0)  -->
<svg version="1.1" id="Layer_1" xmlns="http://www.w3.org/2000/svg" xmlns:xlink="http://www.w3.org/1999/xlink" x="0px" y="0px"
	 viewBox="0 0 48 48" style="enable-background:new 0 0 48 48;" xml:space="preserve">
<style type="text/css">
	.st0{fill-rule:evenodd;clip-rule:evenodd;fill:#93F4FE;fill-opacity:0.64;}
	.st1{fill-rule:evenodd;clip-rule:evenodd;fill:#FFCF7B;fill-opacity:0.64;}
	.st2{display:none;fill-rule:evenodd;clip-rule:evenodd;fill:#7C85E1;}
	.st3{display:none;fill-rule:evenodd;clip-rule:evenodd;fill:#535FD7;}
	.st4{display:none;fill:#7C85E1;}
	.st5{display:none;fill:#535FD7;}
	.st6{fill:#7C85E1;}
	.st7{fill:#535FD7;}
</style>
<g>
	<path class="st0" d="M0,0h24v48H0V0z"/>
	<path class="st1" d="M28,0h20v20H28V0z"/>
	<path class="st2" d="M14,9v4h20V9c0-0.6-0.4-1-1-1H15C14.4,8,14,8.4,14,9z"/>
	<path class="st3" d="M39,15H9c-0.6,0-1,0.4-1,1v16c0,0.6,0.4,1,1,1h3V23h24v10h3c0.6,0,1-0.4,1-1V16C40,15.4,39.6,15,39,15z M20,40
		v-6h-6L20,40z"/>
	<path class="st2" d="M14,25v7h7c0.6,0,1,0.4,1,1v7h11c0.6,0,1-0.4,1-1V25H14z"/>
</g>
<path id="database-3" class="st4" d="M38.8,32.9v3.3c0,2.6-6.2,4.6-13.3,4.6s-13.3-2.1-13.3-4.6v-3.3c3.2,2.3,9.3,3,13.3,3
	S35.6,35.2,38.8,32.9z M25.5,8.9c-7.1,0-13.3,2.1-13.3,4.7s6.2,4.6,13.3,4.6s13.3-2.1,13.3-4.6C38.8,10.9,32.6,8.9,25.5,8.9z
	 M25.5,20.8c-4,0-10.1-0.7-13.3-3v3.3c0,2.6,6.2,4.6,13.3,4.6s13.3-2.1,13.3-4.6v-3.3C35.6,20.1,29.5,20.8,25.5,20.8z M17.5,27.5
	l-0.7,4.6c0.5,0.1,1,0.3,1.6,0.4l0.7-4.7C18.5,27.8,18,27.6,17.5,27.5z M28.9,28.2l-0.7,4.9c0.6,0,1.1-0.1,1.7-0.2l0.7-5
	C30,28.1,29.5,28.2,28.9,28.2z M31.8,27.9l-0.7,5c0.6-0.1,1.1-0.2,1.7-0.3l0.7-5C33,27.7,32.4,27.8,31.8,27.9z M26,28.4l-0.7,4.9
	c0.6,0,1,0,1.6,0l0.7-4.9C27.1,28.4,26.6,28.4,26,28.4z M37.1,30.9c1.1-0.7,1.7-1.5,1.7-2.3v-3.3c-0.3,0.2-0.6,0.4-1,0.6L37.1,30.9z
	 M14.7,26.7L14.1,31c0.4,0.3,1,0.5,1.5,0.7l0.6-4.5C15.8,27.1,15.2,26.9,14.7,26.7z M23.1,28.3l-0.7,4.8c0.5,0,1.1,0.1,1.6,0.1
	l0.7-4.9C24.2,28.4,23.7,28.3,23.1,28.3z M12.2,25.4v3.3c0,0.6,0.3,1.1,0.8,1.6l0.6-4C13,25.9,12.6,25.7,12.2,25.4z M20.3,28
	l-0.7,4.8c0.5,0.1,1.1,0.2,1.6,0.2l0.7-4.8C21.4,28.2,20.8,28.1,20.3,28z M34.8,27.2l-0.7,5c0.6-0.2,1.2-0.4,1.7-0.6l0.7-5
	C36,26.8,35.5,27,34.8,27.2z"/>
<path class="st5" d="M25.5,20.8c-4,0-10.1-0.7-13.3-3v3.3c0,2.6,6.2,4.6,13.3,4.6s13.3-2.1,13.3-4.6v-3.3
	C35.6,20.1,29.5,20.8,25.5,20.8z"/>
<path class="st4" d="M25.5,8.9c-7.1,0-13.3,2.1-13.3,4.7s6.2,4.6,13.3,4.6s13.3-2.1,13.3-4.6C38.8,10.9,32.6,8.9,25.5,8.9z"/>
<path class="st5" d="M38.8,32.9v3.3c0,2.6-6.2,4.6-13.3,4.6s-13.3-2.1-13.3-4.6v-3.3c3.2,2.3,9.3,3,13.3,3S35.6,35.2,38.8,32.9z"/>
<path class="st4" d="M38.7,26.1c-3.3,0-5.9,2.6-5.9,5.9s2.6,5.9,5.9,5.9s5.9-2.6,5.9-5.9C44.6,28.8,42,26.1,38.7,26.1z M41.3,32.9
	h-1.7v1.7h-1.7v-1.7h-1.7v-1.7h1.7v-1.7h1.7v1.7h1.7V32.9z"/>
<path class="st4" d="M4.1,37.9h10.1c0-11,5.1-6.2,5.1-15c0-3.4-2.2-5.2-5.1-5.2c-4.2,0-7.1,4-3.1,11.5c1.3,2.5-1.4,3.1-4.3,3.7
	c-2.5,0.6-2.7,1.8-2.7,3.9C4.1,36.9,4.1,37.9,4.1,37.9z"/>
<path class="st5" d="M33.1,37.9H17.6l0-1.4c0-2.8,0.2-4.5,3.6-5.2c3.8-0.9,7.5-1.7,5.7-5c-5.3-9.8-1.5-15.4,4.2-15.4
	c6.9,0,8.2,7,5.2,13.3c-3.3,1-5.8,4.1-5.8,7.8C30.6,34.4,31.6,36.4,33.1,37.9z"/>
<path class="st4" d="M32.4,11.3h5.3v5.3h2.6V8.7h-7.9V11.3z M11.2,16.6v-5.3h5.3V8.7H8.6v7.9H11.2z M37.7,32.5v5.3h-5.3v2.6h7.9
	v-7.9H37.7z"/>
<rect x="19.2" y="8.7" class="st5" width="10.6" height="2.6"/>
<rect x="37.7" y="19.2" class="st5" width="2.6" height="10.6"/>
<rect x="8.6" y="19.2" class="st5" width="21.2" height="21.2"/>
<path class="st6" d="M42.2,31.1v-1.5c-0.8-0.3-1.3-0.4-1.5-1c-0.3-0.6,0-1,0.4-1.8L40,25.7c-0.7,0.4-1.2,0.7-1.8,0.4
	c-0.6-0.3-0.7-0.8-1-1.5h-1.5c-0.3,0.8-0.4,1.3-1,1.5c-0.6,0.3-1,0-1.8-0.4l-1.1,1.1c0.4,0.8,0.7,1.2,0.4,1.8
	c-0.3,0.6-0.8,0.7-1.5,1v1.5c0.8,0.3,1.3,0.4,1.5,1c0.3,0.6-0.1,1-0.4,1.8L33,35c0.7-0.4,1.2-0.7,1.8-0.4c0.6,0.3,0.7,0.8,1,1.5h1.5
	c0.3-0.8,0.4-1.3,1-1.5h0c0.6-0.3,1,0,1.8,0.4l1.1-1.1c-0.4-0.7-0.7-1.2-0.4-1.8C41,31.5,41.5,31.4,42.2,31.1z M36.5,32.3
	c-1.1,0-1.9-0.9-1.9-1.9s0.9-1.9,1.9-1.9c1.1,0,1.9,0.9,1.9,1.9S37.6,32.3,36.5,32.3z"/>
<path class="st7" d="M32.2,22.7v-3.3c-1.7-0.6-2.7-0.8-3.3-2.1c-0.5-1.3,0.1-2.2,0.9-3.8l-2.3-2.3c-1.6,0.8-2.5,1.4-3.8,0.9
	c-1.3-0.5-1.5-1.6-2.1-3.3h-3.3c-0.6,1.7-0.8,2.7-2.1,3.3h0c-1.3,0.5-2.2-0.1-3.8-0.9l-2.3,2.3c0.8,1.6,1.4,2.5,0.9,3.8
	c-0.5,1.3-1.6,1.5-3.3,2.1v3.3c1.7,0.6,2.7,0.8,3.3,2.1c0.5,1.3-0.1,2.2-0.9,3.8l2.3,2.3c1.6-0.8,2.5-1.4,3.8-0.9h0
	c1.3,0.5,1.5,1.6,2.1,3.3h3.3c0.6-1.7,0.8-2.7,2.1-3.3h0c1.3-0.5,2.2,0.1,3.8,0.9l2.3-2.3c-0.8-1.6-1.4-2.5-0.9-3.8
	C29.4,23.4,30.5,23.2,32.2,22.7z M20,25.1c-2.2,0-4.1-1.8-4.1-4.1c0-2.3,1.8-4.1,4.1-4.1S24,18.8,24,21C24,23.3,22.2,25.1,20,25.1z"
	/>
<path class="st7" d="M30.7,36.7v-1.2c-0.6-0.2-1-0.3-1.2-0.7s0-0.8,0.3-1.3l-0.8-0.8c-0.6,0.3-0.9,0.5-1.3,0.3
	c-0.5-0.2-0.5-0.6-0.7-1.2h-1.2c-0.2,0.6-0.3,1-0.7,1.2c-0.5,0.2-0.8,0-1.3-0.3L23,33.5c0.3,0.6,0.5,0.9,0.3,1.3
	c-0.2,0.5-0.6,0.5-1.2,0.7v1.2c0.6,0.2,1,0.3,1.2,0.7c0.2,0.5,0,0.8-0.3,1.3l0.8,0.8c0.6-0.3,0.9-0.5,1.3-0.3
	c0.5,0.2,0.5,0.6,0.7,1.2H27c0.2-0.6,0.3-1,0.7-1.2h0c0.5-0.2,0.8,0,1.3,0.3l0.8-0.8c-0.3-0.6-0.5-0.9-0.3-1.3
	C29.8,37,30.2,36.9,30.7,36.7z M26.4,37.5c-0.8,0-1.4-0.6-1.4-1.4c0-0.8,0.6-1.4,1.4-1.4s1.4,0.6,1.4,1.4
	C27.9,36.9,27.2,37.5,26.4,37.5z"/>
</svg>
