<?xml version="1.0" encoding="utf-8"?>
<!-- Generator: Adobe Illustrator 23.0.1, SVG Export Plug-In . SVG Version: 6.00 Build 0)  -->
<svg version="1.1" id="Layer_1" xmlns="http://www.w3.org/2000/svg" xmlns:xlink="http://www.w3.org/1999/xlink" x="0px" y="0px"
	 viewBox="0 0 48 48" style="enable-background:new 0 0 48 48;" xml:space="preserve">
<style type="text/css">
	.st0{fill-rule:evenodd;clip-rule:evenodd;fill:#535FD7;fill-opacity:0.32;}
	.st1{fill-rule:evenodd;clip-rule:evenodd;fill:#2FEAFC;fill-opacity:0.16;}
	.st2{display:none;fill-rule:evenodd;clip-rule:evenodd;fill:#7C85E1;}
	.st3{display:none;fill-rule:evenodd;clip-rule:evenodd;fill:#61EFFD;}
	.st4{fill:#7C85E1;}
	.st5{fill:#61EFFD;}
</style>
<g>
	<path class="st0" d="M0,0h24v48H0V0z"/>
	<path class="st1" d="M28,0h20v20H28V0z"/>
	<path class="st2" d="M14,9v4h20V9c0-0.6-0.4-1-1-1H15C14.4,8,14,8.4,14,9z"/>
	<path class="st3" d="M39,15H9c-0.6,0-1,0.4-1,1v16c0,0.6,0.4,1,1,1h3V23h24v10h3c0.6,0,1-0.4,1-1V16C40,15.4,39.6,15,39,15z M20,40
		v-6h-6L20,40z"/>
	<path class="st2" d="M14,25v7h7c0.6,0,1,0.4,1,1v7h11c0.6,0,1-0.4,1-1V25H14z"/>
	<path id="database-3" class="st4" d="M39.3,32.1v3.3c0,2.6-6.2,4.6-13.3,4.6c-7.1,0-13.3-2.1-13.3-4.6v-3.3c3.2,2.3,9.3,3,13.3,3
		C29.9,35.1,36,34.4,39.3,32.1z M25.9,8c-7.1,0-13.3,2.1-13.3,4.7c0,2.6,6.2,4.6,13.3,4.6c7.1,0,13.3-2.1,13.3-4.6
		C39.3,10.1,33.1,8,25.9,8z M25.9,20c-4,0-10.1-0.7-13.3-3v3.3c0,2.6,6.2,4.6,13.3,4.6c7.1,0,13.3-2.1,13.3-4.6V17
		C36,19.3,29.9,20,25.9,20z M17.9,26.7l-0.7,4.6c0.5,0.1,1,0.3,1.6,0.4l0.7-4.7C18.9,26.9,18.4,26.8,17.9,26.7z M29.3,27.4l-0.7,4.9
		c0.6,0,1.1-0.1,1.7-0.2l0.7-5C30.4,27.3,29.9,27.3,29.3,27.4z M32.2,27l-0.7,5c0.6-0.1,1.1-0.2,1.7-0.3l0.7-5
		C33.4,26.8,32.8,26.9,32.2,27z M26.4,27.5l-0.7,4.9c0.6,0,1,0,1.6,0l0.7-4.9C27.5,27.5,27,27.5,26.4,27.5z M37.6,30
		c1.1-0.7,1.7-1.5,1.7-2.3v-3.3c-0.3,0.2-0.6,0.4-1,0.6L37.6,30z M15.1,25.8l-0.6,4.3c0.4,0.3,1,0.5,1.5,0.7l0.6-4.5
		C16.2,26.2,15.6,26,15.1,25.8z M23.5,27.5l-0.7,4.8c0.5,0,1.1,0.1,1.6,0.1l0.7-4.9C24.6,27.5,24.1,27.5,23.5,27.5z M12.6,24.5v3.3
		c0,0.6,0.3,1.1,0.8,1.6l0.6-4C13.5,25.1,13,24.8,12.6,24.5z M20.7,27.2L20,31.9c0.5,0.1,1.1,0.2,1.6,0.2l0.7-4.8
		C21.8,27.3,21.2,27.2,20.7,27.2z M35.2,26.3l-0.7,5c0.6-0.2,1.2-0.4,1.7-0.6l0.7-5C36.4,26,35.9,26.1,35.2,26.3z"/>
	<path class="st5" d="M25.9,20c-4,0-10.1-0.7-13.3-3v3.3c0,2.6,6.2,4.6,13.3,4.6c7.1,0,13.3-2.1,13.3-4.6V17
		C36,19.3,29.9,20,25.9,20z"/>
</g>
<path class="st4" d="M25.9,8c-7.1,0-13.3,2.1-13.3,4.7c0,2.6,6.2,4.6,13.3,4.6c7.1,0,13.3-2.1,13.3-4.6C39.3,10.1,33.1,8,25.9,8z"/>
<path class="st5" d="M39.3,32.1v3.3c0,2.6-6.2,4.6-13.3,4.6c-7.1,0-13.3-2.1-13.3-4.6v-3.3c3.2,2.3,9.3,3,13.3,3
	C29.9,35.1,36,34.4,39.3,32.1z"/>
</svg>
