<?xml version="1.0" encoding="utf-8"?>
<!-- Generator: Adobe Illustrator 23.0.1, SVG Export Plug-In . SVG Version: 6.00 Build 0)  -->
<svg version="1.1" id="Layer_1" xmlns="http://www.w3.org/2000/svg" xmlns:xlink="http://www.w3.org/1999/xlink" x="0px" y="0px"
	 viewBox="0 0 538 380" style="enable-background:new 0 0 538 380;" xml:space="preserve">
<style type="text/css">
	.st0{fill-rule:evenodd;clip-rule:evenodd;fill:#FFFFFF;}
	.st1{fill:#60E7FB;}
	.st2{font-family:'Montserrat-ExtraBold';}
	.st3{font-size:43.7025px;}
	.st4{fill:#ED1E79;}
	.st5{fill:#FCEE21;}
	.st6{fill:#39B54A;}
	.st7{fill:#5DD1F9;}
</style>
<path class="st0" d="M0,0h538v380H0V0z"/>
<g>
	<text transform="matrix(1.0034 0 0 1 107.19 273.0224)" class="st1 st2 st3">LWSG PTE LTD</text>
</g>
<g>
	<g>
		<path class="st4" d="M258.6,136.7l-20.6-55.2l58.1,9.7L258.6,136.7z M251.5,92.8l10,26.6l18.1-21.9L251.5,92.8z"/>
	</g>
	<g>
		<path class="st5" d="M180.6,188.4c-10.7-9.7-11.6-26.3-1.9-37c9.7-10.7,26.3-11.6,37-1.9c10.7,9.7,11.6,26.3,1.9,37
			C208,197.3,191.3,198.1,180.6,188.4z M209.9,156c-7.1-6.4-18.2-5.9-24.6,1.3c-6.4,7.1-5.9,18.2,1.3,24.6
			c7.1,6.4,18.2,5.9,24.6-1.3C217.6,173.5,217,162.5,209.9,156z"/>
	</g>
	<g>
		
			<rect x="269.1" y="153" transform="matrix(0.7657 -0.6432 0.6432 0.7657 -31.8847 227.3102)" class="st6" width="53.9" height="8.8"/>
	</g>
	<polygon class="st7" points="387.5,156.7 383.5,148.9 363.4,159.1 353.2,139.1 345.3,143.1 355.6,163.2 335.6,173.4 339.6,181.2 
		359.6,171 369.9,191 377.7,187 367.4,167 	"/>
</g>
</svg>
